<svg width="34" height="34" viewBox="0 0 34 34" fill="none" xmlns="http://www.w3.org/2000/svg">
<path d="M9.89968 9.89768C6.00352 13.7938 6.00352 20.1437 9.89968 24.0398C13.7958 27.936 20.1457 27.936 24.0418 24.0398C27.938 20.1437 27.938 13.7938 24.0418 9.89768C20.1457 6.00152 13.7958 6.00152 9.89968 9.89768ZM20.3295 14.6707L18.0314 16.9688L20.3295 19.2668C20.6194 19.5568 20.6194 20.0376 20.3295 20.3275C20.0396 20.6174 19.5588 20.6174 19.2688 20.3275L16.9707 18.0294L14.6727 20.3275C14.3827 20.6174 13.9019 20.6174 13.612 20.3275C13.3221 20.0376 13.3221 19.5568 13.612 19.2668L15.9101 16.9688L13.612 14.6707C13.3221 14.3807 13.3221 13.8999 13.612 13.61C13.9019 13.3201 14.3827 13.3201 14.6727 13.61L16.9707 15.9081L19.2688 13.61C19.5588 13.3201 20.0396 13.3201 20.3295 13.61C20.6194 13.8999 20.6194 14.3807 20.3295 14.6707Z" fill="#282828"/>
</svg>
